# xmcd
# 
# Track frame offsets:
#     150
#     13802
#     28942
#     38595
#     49605
#     60837
#     76765
#     89417
#     100590
#     113232
#     144680
#     167020
#     187977
#     198550
# 
# Disc length: 2806
# 
# Revision: 1
# Processed by: cddbd v1.5.2PL0 Copyright (c) Steve Scherf et al.
# Submitted via: fre:ac v1.0.31
# 
DISCID=ac0af40e
DTITLE=Roots of Rhythm - Restless Soul
DYEAR=1999
DGENRE=R&B
TTITLE0=NAt King Cole - (Get Your Kicks On) Route 66
TTITLE1=Louis Jordan - I'm Gonna Move To The Outskirts Of Town
TTITLE2=Fats Domino - I'm Walkin'
TTITLE3=Wilbert Harrison - Kansas City
TTITLE4=LaVern Baker - See See Rider
TTITLE5=James Brown - Night Train
TTITLE6=Jr. Walker and Teh AllStars - (I'm a) Road Runner
TTITLE7=Marvin Gaye - Hitch Hike
TTITLE8=Martha Reeves and The Vandelas - Nowhere to Run
TTITLE9=The Temptations - Papa Was A Rollin' Stone
TTITLE10=Ike and Tina Turner - Proud Mary
TTITLE11=Gladys Knight and the Pips - Midnight Train To Georgia
TTITLE12=T-Bone Walker - Travelin BluesTrack 13
TTITLE13=Muddy Waters - All Aboard
EXTD=
EXTT0=
EXTT1=
EXTT2=
EXTT3=
EXTT4=
EXTT5=
EXTT6=
EXTT7=
EXTT8=
EXTT9=
EXTT10=
EXTT11=
EXTT12=
EXTT13=
PLAYORDER=
